# xmcd
#
# Track frame offsets:
#	750
#	18931
#	33933
#	48883
#	64009
#	79594
#	92761
#	105852
#	120435
#	139878
#	157682
#	172724
#	187870
#	209311
#	228943
#	242890
#	258911
#	285303
#
# Disc length: 3812 seconds
#
# Revision: 1
# Processed by: cddbd v1.5PL3 Copyright (c) Steve Scherf et al.
# Submitted via: EasyCDDAExtractor 6.0.0.1
#
DISCID=cc0eda12
DTITLE=Trenkwalder - Nit so etepetete - Live
DYEAR=2004
DGENRE=Volksmusik
TTITLE0=Griaß Gott ( live)
TTITLE1=Hey Hubsi ( Live)
TTITLE2=Saulagglboarischer ( live)
TTITLE3=Ja das ist unser Land ( live)
TTITLE4=Die Grianen Hoar ( live)
TTITLE5=samma scho auf sendung ( live)
TTITLE6=Weil i a  Tiroler bin ( live)
TTITLE7=scheen Marie ( live)
TTITLE8=nit so Etepetete ( live)
TTITLE9=Walzer Medley ( live)
TTITLE10=ab ins Kaunertal ( live)
TTITLE11=deine Sommerproseen ( live)
TTITLE12=wie a berg ohne felsen ( live)
TTITLE13=bumm bumm ( live)
TTITLE14=ab in den Süden ( Blasmusi Mix live)
TTITLE15=Ab in den Süden (hütten mix live)
TTITLE16=nit so etepetete (Apres Ski live)
TTITLE17=unbekann
EXTD=
EXTT0=
EXTT1=
EXTT2=
EXTT3=
EXTT4=
EXTT5=
EXTT6=
EXTT7=
EXTT8=
EXTT9=
EXTT10=
EXTT11=
EXTT12=
EXTT13=
EXTT14=
EXTT15=
EXTT16=
EXTT17=
PLAYORDER=
